<?xml version="1.0" encoding="UTF-8"?>
<svg id="Layer_2" data-name="Layer 2" xmlns="http://www.w3.org/2000/svg" width="511.55" height="511.38" xmlns:xlink="http://www.w3.org/1999/xlink" viewBox="0 0 511.55 511.38">
  <defs>
    <style>
      .cls-1 {
        mask: url(#mask);
      }

      .cls-2 {
        fill: #fef1fb;
      }

      .cls-3 {
        mask: url(#mask-1);
      }

      .cls-4 {
        fill: #fff;
      }

      .cls-5 {
        fill: #855268;
      }

      .cls-6 {
        fill: none;
        stroke: #000;
        stroke-dasharray: 0 125.44;
        stroke-linecap: round;
        stroke-width: 70.25px;
      }
    </style>
    <mask id="mask" x="-51.16" y="-30" width="613.87" height="590.6" maskUnits="userSpaceOnUse">
      <g id="stamp-mask">
        <rect class="cls-4" x="-51.16" y="-30" width="613.87" height="590.6"/>
        <rect class="cls-6" y="19.21" width="511.55" height="492.16"/>
      </g>
    </mask>
    <mask id="mask-1" x="-51.16" y="-49.22" width="613.87" height="590.6" maskUnits="userSpaceOnUse">
      <g id="stamp-mask-2" data-name="stamp-mask">
        <rect class="cls-4" x="-51.16" y="-49.22" width="613.87" height="590.6"/>
        <rect class="cls-6" width="511.55" height="492.16"/>
      </g>
    </mask>
  </defs>
  <g id="Layer_1-2" data-name="Layer 1">
    <g>
      <g class="cls-1">
        <rect class="cls-5" y="19.21" width="511.55" height="492.16"/>
      </g>
      <g class="cls-3">
        <rect class="cls-2" width="511.55" height="492.16"/>
      </g>
      <path class="cls-5" d="M255.75,372.75c-14.35,0-26.52-1.76-36.51-5.29-10-3.53-18.17-7.7-24.51-12.52-6.35-4.82-11.17-9.23-14.46-13.23-3.3-4-5.29-6.46-6-7.41-4.71-5.88-7.58-11.17-8.64-15.87-1.06-4.7-.35-9.4,2.12-14.11,2.47-4.7,6.64-9.88,12.52-15.52,5.41-5.17,10.7-8.05,15.87-8.64,5.17-.58,10.28.53,15.34,3.35,5.05,2.82,9.93,6.94,14.64,12.35,5.64,6.35,10.46,10.64,14.46,12.87,4,2.24,8.58,3.35,13.76,3.35,6.35,0,11.52-.76,15.52-2.29,4-1.53,6.93-3.88,8.82-7.05,1.88-3.17,2.82-7.23,2.82-12.17,0-4-2-7.11-6-9.35-4-2.23-9.23-4.17-15.7-5.82-6.47-1.64-13.7-3.47-21.69-5.47-8-2-15.87-4.64-23.63-7.94-4.71-1.88-9.29-4.23-13.76-7.05-4.47-2.82-8.64-6.05-12.52-9.7-3.88-3.64-7.23-7.99-10.05-13.05-2.82-5.05-5-10.76-6.53-17.11-1.53-6.35-2.29-13.52-2.29-21.52,0-14.34,3.58-27.16,10.76-38.45,7.17-11.29,17.05-20.22,29.63-26.81,12.58-6.58,26.86-9.88,42.86-9.88,11.52,0,21.39.94,29.63,2.82,8.23,1.88,14.99,4.12,20.28,6.7,5.29,2.59,9.35,5,12.17,7.23,2.82,2.24,4.58,3.7,5.29,4.41,7.76,7.05,11.99,13.11,12.7,18.17.71,5.06-2.12,12.29-8.46,21.69-7.05,10.11-13.99,15.82-20.81,17.11-6.82,1.3-14.7-.88-23.63-6.52-1.88-1.41-3.76-3-5.64-4.76-1.88-1.76-4.41-3.29-7.58-4.59-3.17-1.29-7.94-1.94-14.29-1.94-2.35,0-4.71.41-7.05,1.23-2.35.83-4.35,1.88-6,3.17-1.65,1.3-3,2.88-4.06,4.76-1.06,1.89-1.59,3.88-1.59,6,0,4.94,1.88,8.76,5.64,11.46,3.76,2.71,8.76,4.76,14.99,6.17,6.23,1.41,13.11,2.82,20.63,4.23,7.52,1.41,15.17,3.3,22.93,5.64,6.35,2.12,12.46,4.82,18.34,8.11,5.88,3.3,11.05,7.53,15.52,12.7,4.46,5.17,8.05,11.58,10.76,19.22,2.7,7.64,4.06,16.99,4.06,28.04,0,15.29-2.94,28.28-8.82,38.98-5.88,10.7-13.46,19.28-22.75,25.75-9.29,6.47-19.17,11.17-29.63,14.11-10.47,2.94-20.28,4.41-29.45,4.41Z"/>
    </g>
  </g>
</svg>